<svg viewBox="0 0 32 32" xmlns="http://www.w3.org/2000/svg" data-name="Layer 1"><path d="M22.48 6.82h-2.13v-1.22a4.35 4.35 0 0 0-8.7 0v1.22h-2.13a.76.76 0 0 0-.75.75v22.43c0 .41.34.75.75.75h12.96c.41 0 .75-.34.75-.75v-22.43a.76.76 0 0 0-.75-.75Zm-9.33-1.22a2.86 2.86 0 0 1 5.7 0v1.22h-5.69v-1.22Zm8.58 23.65h-11.46v-20.93h11.46v20.93Z"/><path d="M13.81 10.02h-2.15c-.41 0-.75.34-.75.75s.34.75.75.75h2.15c.41 0 .75-.34.75-.75s-.34-.75-.75-.75Zm3.63.75c0 .41.34.75.75.75h2.15c.41 0 .75-.34.75-.75s-.34-.75-.75-.75h-2.15a.76.76 0 0 0-.75.75Zm-3.63 2.46h-2.15c-.41 0-.75.34-.75.75s.34.75.75.75h2.15c.41 0 .75-.34.75-.75s-.34-.75-.75-.75Zm6.53 0h-2.15c-.41 0-.75.34-.75.75s.34.75.75.75h2.15c.41 0 .75-.34.75-.75s-.34-.75-.75-.75Zm-6.53 3.2h-2.15c-.41 0-.75.34-.75.75s.34.75.75.75h2.15c.41 0 .75-.34.75-.75s-.34-.75-.75-.75Zm6.53 0h-2.15c-.41 0-.75.34-.75.75s.34.75.75.75h2.15c.41 0 .75-.34.75-.75s-.34-.75-.75-.75Zm-6.53 3.21h-2.15c-.41 0-.75.34-.75.75s.34.75.75.75h2.15c.41 0 .75-.34.75-.75s-.34-.75-.75-.75Zm6.53 0h-2.15c-.41 0-.75.34-.75.75s.34.75.75.75h2.15c.41 0 .75-.34.75-.75s-.34-.75-.75-.75Zm-6.53 3.2h-2.15c-.41 0-.75.34-.75.75s.34.75.75.75h2.15c.41 0 .75-.34.75-.75s-.34-.75-.75-.75Zm6.53 0h-2.15c-.41 0-.75.34-.75.75s.34.75.75.75h2.15c.41 0 .75-.34.75-.75s-.34-.75-.75-.75Zm-6.53 3.21h-2.15c-.41 0-.75.34-.75.75s.34.75.75.75h2.15c.41 0 .75-.34.75-.75s-.34-.75-.75-.75Zm6.53 0h-2.15c-.41 0-.75.34-.75.75s.34.75.75.75h2.15c.41 0 .75-.34.75-.75s-.34-.75-.75-.75Z"/></svg>