<svg xmlns="http://www.w3.org/2000/svg" xmlns:xlink="http://www.w3.org/1999/xlink"><symbol id="grater" viewBox="0 0 32 32"><path d="M22.48 6.82h-2.13v-1.22a4.35 4.35 0 0 0-8.7 0v1.22h-2.13a.76.76 0 0 0-.75.75v22.43c0 .41.34.75.75.75h12.96c.41 0 .75-.34.75-.75v-22.43a.76.76 0 0 0-.75-.75Zm-9.33-1.22a2.86 2.86 0 0 1 5.7 0v1.22h-5.69v-1.22Zm8.58 23.65h-11.46v-20.93h11.46v20.93Z"/><path d="M13.81 10.02h-2.15c-.41 0-.75.34-.75.75s.34.75.75.75h2.15c.41 0 .75-.34.75-.75s-.34-.75-.75-.75Zm3.63.75c0 .41.34.75.75.75h2.15c.41 0 .75-.34.75-.75s-.34-.75-.75-.75h-2.15a.76.76 0 0 0-.75.75Zm-3.63 2.46h-2.15c-.41 0-.75.34-.75.75s.34.75.75.75h2.15c.41 0 .75-.34.75-.75s-.34-.75-.75-.75Zm6.53 0h-2.15c-.41 0-.75.34-.75.75s.34.75.75.75h2.15c.41 0 .75-.34.75-.75s-.34-.75-.75-.75Zm-6.53 3.2h-2.15c-.41 0-.75.34-.75.75s.34.75.75.75h2.15c.41 0 .75-.34.75-.75s-.34-.75-.75-.75Zm6.53 0h-2.15c-.41 0-.75.34-.75.75s.34.75.75.75h2.15c.41 0 .75-.34.75-.75s-.34-.75-.75-.75Zm-6.53 3.21h-2.15c-.41 0-.75.34-.75.75s.34.75.75.75h2.15c.41 0 .75-.34.75-.75s-.34-.75-.75-.75Zm6.53 0h-2.15c-.41 0-.75.34-.75.75s.34.75.75.75h2.15c.41 0 .75-.34.75-.75s-.34-.75-.75-.75Zm-6.53 3.2h-2.15c-.41 0-.75.34-.75.75s.34.75.75.75h2.15c.41 0 .75-.34.75-.75s-.34-.75-.75-.75Zm6.53 0h-2.15c-.41 0-.75.34-.75.75s.34.75.75.75h2.15c.41 0 .75-.34.75-.75s-.34-.75-.75-.75Zm-6.53 3.21h-2.15c-.41 0-.75.34-.75.75s.34.75.75.75h2.15c.41 0 .75-.34.75-.75s-.34-.75-.75-.75Zm6.53 0h-2.15c-.41 0-.75.34-.75.75s.34.75.75.75h2.15c.41 0 .75-.34.75-.75s-.34-.75-.75-.75Z"/></symbol><symbol id="humberger" viewBox="0 0 32 32"><path d="M29.22 13.95h-.28v-2.07c0-4.75-5.76-8.61-12.84-8.61s-12.84 3.87-12.84 8.61v2.07h-.48c-.84 0-1.52.68-1.52 1.52v1.06c0 .84.68 1.52 1.52 1.52h.48v2.07c0 4.74 5.76 8.6 12.84 8.6s12.84-3.86 12.84-8.6v-2.07h.28c.84 0 1.52-.68 1.52-1.52v-1.06c0-.84-.68-1.52-1.52-1.52Zm-13.12-9.17c5.85 0 10.68 2.79 11.28 6.36h-22.56c.6-3.57 5.43-6.36 11.28-6.36Zm-11.34 7.85h22.68v1.32h-22.68v-1.32Zm11.34 14.58c-5.85 0-10.68-2.79-11.28-6.35h12.49l1.8 3a.75.75 0 0 0 1.28 0l1.8-3h5.17c-.6 3.56-5.43 6.35-11.28 6.35Zm11.34-7.85h-5.66a.75.75 0 0 0-.64.36l-1.38 2.29-1.38-2.29a.74.74 0 0 0-.64-.36h-12.98v-1.32h22.68v1.32Zm1.78-2.82-26.46-.02.02-1.08h26.43l.02.02-.02 1.08Z"/></symbol><symbol id="sequence" viewBox="0 0 1024 1024"><path d="m832 384 8 1.6-1.6 8 1.6 3.2-4.8 3.2-44.8 161.6-16-4.8 40-147.2-260.8 144-158.4 284.8-11.2-6.4-6.4 6.4-176-176 11.2-11.2 163.2 163.2 147.2-265.6-294.4-297.6 11.2-11.2v-8h9.6l3.2-3.2 3.2 3.2 408-24 1.6 16-395.2 22.4 278.4 278.4 276.8-153.6 6.4 12.8z" fill="#050D42"/><path d="M896 384c0 35.2-28.8 64-64 64s-64-28.8-64-64 28.8-64 64-64 64 28.8 64 64zm-656-32c-62.4 0-112-49.6-112-112s49.6-112 112-112 112 49.6 112 112-49.6 112-112 112zm304 336c-80 0-144-64-144-144s64-144 144-144 144 64 144 144-64 144-144 144zm-224 144c0-35.2 28.8-64 64-64s64 28.8 64 64-28.8 64-64 64-64-28.8-64-64zm-144-176c0-17.6 14.4-32 32-32s32 14.4 32 32-14.4 32-32 32-32-14.4-32-32zm448-440c0-22.4 17.6-40 40-40s40 17.6 40 40-17.6 40-40 40-40-17.6-40-40zm112 344c0-27.2 20.8-48 48-48s48 20.8 48 48-20.8 48-48 48-48-20.8-48-48z" fill="#2F4BFF"/></symbol></svg>