<svg xmlns="http://www.w3.org/2000/svg"><style>:root svg:not(:target){display:none}</style><svg viewBox="0 0 32 32" data-name="Layer 1" id="hat"><path d="M6.33 18.45v8.59c0 .41.34.75.75.75h15.13c.41 0 .75-.34.75-.75v-8.6a5.13 5.13 0 0 0-3.53-9.62c-1.2-1.87-3.24-3.01-5.49-3.01s-4.09 1.02-5.31 2.75a5.13 5.13 0 0 0-2.29 9.88Zm1.5 7.84v-1.87h13.63v1.87h-13.63Zm13.63-7.48v4.11h-13.63v-4.11h13.63Zm-13.27-8.76c.18 0 .36.02.56.05h.02a3.65 3.65 0 0 1 2.97 3.57c0 .41.34.75.75.75s.75-.34.75-.75a5.14 5.14 0 0 0-3.04-4.67 5.02 5.02 0 0 1 8.24 1.09.8.8 0 0 0 .43.38c.19.06.39.05.57-.04a3.64 3.64 0 1 1 1.65 6.86h-12.9a3.64 3.64 0 0 1 0-7.26Z"></path></svg></svg>